<?xml version="1.0" encoding="UTF-8" standalone="no"?>
<!DOCTYPE svg PUBLIC "-//W3C//DTD SVG 1.1//EN" "http://www.w3.org/Graphics/SVG/1.1/DTD/svg11.dtd">
<svg xmlns="http://www.w3.org/2000/svg" version="1.1" viewBox="0.00 0.00 512.00 512.00">
<g stroke-width="2.00" fill="none" stroke-linecap="butt">












</g>
<path fill="none" d="
  M 512.00 0.00
  L 512.00 512.00
  L 0.00 512.00
  L 0.00 0.00
  L 512.00 0.00
  Z
  M 256.24 470.67
  C 304.32 470.63 350.41 453.33 387.45 422.62
  C 421.04 394.77 446.15 357.33 458.21 315.85
  C 471.15 271.37 469.28 224.17 453.08 180.72
  C 422.40 98.44 344.72 43.04 255.85 43.12
  C 166.97 43.20 89.39 98.74 58.86 181.08
  C 42.74 224.56 40.96 271.76 53.98 316.22
  C 66.11 357.67 91.29 395.07 124.93 422.86
  C 162.03 453.50 208.16 470.72 256.24 470.67
  Z"
/>
<path fill="#ffffff" d="
  M 255.85 43.12
  C 344.72 43.04 422.40 98.44 453.08 180.72
  C 469.28 224.17 471.15 271.37 458.21 315.85
  C 446.15 357.33 421.04 394.77 387.45 422.62
  C 350.41 453.33 304.32 470.63 256.24 470.67
  C 208.16 470.72 162.03 453.50 124.93 422.86
  C 91.29 395.07 66.11 357.67 53.98 316.22
  C 40.96 271.76 42.74 224.56 58.86 181.08
  C 89.39 98.74 166.97 43.20 255.85 43.12
  Z
  M 260.50 291.21
  C 261.89 302.08 271.55 308.13 281.48 312.06
  C 293.35 316.76 315.84 323.52 317.02 339.11
  Q 317.72 348.22 311.08 354.88
  Q 303.59 362.39 291.30 367.82
  C 274.69 375.14 257.28 380.01 239.71 384.66
  C 217.00 390.67 200.63 394.78 181.47 401.98
  C 169.52 406.47 156.46 413.17 147.96 422.35
  A 0.38 0.37 -51.6 0 0 148.02 422.91
  C 183.87 447.71 226.85 459.70 270.49 456.36
  A 0.30 0.30 0.0 0 0 270.73 455.92
  Q 263.52 442.10 272.71 429.42
  Q 276.81 423.76 280.20 420.93
  Q 289.46 413.20 305.35 403.84
  C 323.00 393.44 336.98 385.44 352.28 373.56
  C 362.14 365.91 373.29 354.56 374.98 341.78
  C 377.47 323.01 355.91 315.17 342.01 311.54
  Q 326.74 307.56 305.88 304.14
  C 292.09 301.87 268.65 296.34 270.41 277.79
  C 272.01 260.94 290.65 254.88 305.01 254.70
  Q 323.52 254.47 327.00 254.45
  C 334.11 254.43 337.67 248.58 339.23 242.72
  Q 341.44 234.45 342.89 224.11
  Q 344.10 215.45 347.13 203.38
  C 348.86 196.50 353.34 186.22 361.82 185.84
  C 371.37 185.41 375.69 196.10 377.89 203.59
  Q 380.34 211.93 383.08 227.15
  Q 388.17 255.48 390.78 267.26
  C 391.80 271.86 394.13 280.52 397.53 284.37
  A 0.88 0.87 -43.5 0 0 398.81 284.40
  Q 400.88 282.32 402.00 279.23
  C 405.63 269.30 409.24 259.98 419.19 256.02
  Q 423.12 254.47 430.93 254.50
  Q 444.82 254.57 452.24 254.54
  A 0.83 0.82 90.0 0 0 453.06 253.71
  Q 453.04 237.72 450.24 221.99
  C 435.53 139.63 372.70 74.16 289.60 59.65
  C 233.29 49.82 175.08 65.33 131.26 101.80
  C 86.16 139.34 59.71 195.16 58.88 253.92
  A 0.58 0.58 0.0 0 0 59.45 254.51
  Q 69.09 254.62 73.23 254.37
  Q 78.71 254.05 81.26 249.53
  C 84.36 244.04 85.91 238.00 88.95 232.98
  C 93.58 225.30 103.36 222.28 110.08 229.68
  C 114.41 234.44 116.23 240.76 118.00 247.28
  C 119.93 254.33 121.97 268.65 126.07 278.33
  A 0.67 0.67 0.0 0 0 127.31 278.30
  Q 129.07 273.62 130.11 268.33
  Q 132.56 255.93 134.03 240.75
  Q 136.68 213.44 138.69 200.20
  Q 140.23 190.05 142.41 183.15
  C 143.91 178.40 146.21 173.97 150.68 171.74
  C 154.41 169.88 159.18 170.97 162.05 174.17
  C 166.06 178.64 167.55 184.52 168.89 190.87
  Q 170.80 199.88 172.23 215.26
  Q 174.57 240.30 178.71 292.75
  Q 179.84 307.05 181.87 320.38
  Q 182.90 327.20 184.95 333.07
  A 0.48 0.48 0.0 0 0 185.87 333.05
  Q 188.68 323.46 189.90 313.15
  Q 192.35 292.42 194.79 271.51
  Q 196.07 260.51 198.34 251.83
  C 199.83 246.10 202.43 239.89 207.70 237.00
  C 213.62 233.75 220.20 237.11 223.27 242.50
  C 228.73 252.09 230.64 265.99 233.14 273.86
  C 233.98 276.48 236.21 281.97 238.50 282.76
  A 3.46 2.70 -54.5 0 0 241.67 281.82
  Q 243.89 279.64 245.05 276.31
  C 249.97 262.23 250.08 246.73 249.99 231.54
  A 0.71 0.70 -86.3 0 0 249.38 230.84
  C 222.14 227.36 201.34 205.09 200.12 177.50
  Q 199.82 170.69 199.92 155.06
  Q 199.94 151.15 200.79 149.61
  C 202.90 145.76 208.31 145.68 210.76 149.18
  Q 211.83 150.71 211.81 155.19
  Q 211.73 175.35 211.84 178.00
  C 212.37 190.53 219.09 202.10 228.78 209.94
  C 243.74 222.05 264.51 222.78 280.53 212.08
  C 291.78 204.56 300.20 190.97 300.28 176.99
  Q 300.39 159.11 300.29 155.04
  Q 300.17 150.84 301.28 149.31
  C 303.91 145.69 309.14 145.78 311.29 149.53
  Q 312.31 151.29 312.23 155.44
  C 312.02 165.77 313.05 177.08 310.98 186.76
  C 306.03 209.92 286.58 228.48 262.64 230.76
  A 0.60 0.59 -3.7 0 0 262.11 231.36
  Q 262.43 245.44 261.24 258.74
  C 260.48 267.25 258.83 276.78 254.91 284.21
  C 247.60 298.07 231.53 299.57 224.44 284.82
  C 218.49 272.44 217.86 258.63 213.44 249.63
  A 0.80 0.80 0.0 0 0 211.96 249.72
  Q 209.10 257.93 207.50 269.01
  Q 206.64 275.02 202.62 311.08
  Q 201.23 323.61 198.25 334.48
  C 196.36 341.37 191.53 350.66 183.26 348.61
  C 176.19 346.85 173.39 338.70 171.69 332.05
  Q 169.02 321.55 167.73 307.50
  Q 164.60 273.29 162.01 238.50
  Q 161.15 226.87 159.21 208.51
  Q 158.04 197.35 155.23 186.77
  A 0.60 0.60 0.0 0 0 154.07 186.78
  Q 151.03 199.07 149.60 212.12
  Q 145.20 252.07 144.12 259.88
  C 142.92 268.60 141.50 277.96 137.32 285.55
  C 134.57 290.55 129.16 294.01 123.62 291.91
  C 116.07 289.05 112.74 280.19 111.01 272.49
  Q 109.07 263.89 106.28 250.49
  Q 104.92 243.99 101.89 238.84
  A 1.13 1.13 0.0 0 0 100.10 238.62
  Q 98.93 239.82 97.77 242.28
  C 95.74 246.55 93.75 253.86 89.95 258.42
  C 81.60 268.44 71.55 266.71 59.96 266.61
  A 0.55 0.55 0.0 0 0 59.41 267.12
  Q 59.26 269.26 59.42 271.23
  C 64.01 327.94 92.89 380.12 137.41 415.14
  A 0.61 0.60 40.2 0 0 138.22 415.08
  C 147.39 405.23 159.86 397.92 171.83 393.09
  Q 188.54 386.36 203.45 382.19
  C 219.46 377.71 249.57 370.35 272.15 362.62
  C 282.08 359.22 292.70 355.14 300.06 349.06
  Q 303.57 346.17 304.28 344.41
  Q 306.47 339.03 302.35 335.52
  Q 297.12 331.07 288.24 327.51
  C 273.81 321.71 257.08 316.56 250.81 300.63
  A 0.70 0.69 -27.1 0 1 251.09 299.79
  Q 256.56 296.38 259.81 291.06
  A 0.38 0.37 57.0 0 1 260.50 291.21
  Z
  M 451.96 266.63
  Q 441.59 266.77 431.78 266.63
  C 424.32 266.53 419.92 267.81 417.17 274.69
  C 413.61 283.56 409.67 297.30 397.82 297.03
  C 390.29 296.86 385.63 290.43 383.20 283.82
  Q 379.87 274.80 377.85 265.13
  Q 374.76 250.34 369.82 222.95
  Q 367.61 210.72 365.04 203.55
  Q 364.04 200.76 362.72 199.18
  A 0.52 0.52 0.0 0 0 361.87 199.26
  Q 359.54 203.47 358.27 209.03
  C 355.75 220.01 354.43 234.99 350.52 247.52
  C 347.37 257.63 340.33 266.09 328.99 266.50
  Q 324.03 266.68 304.02 266.75
  C 296.29 266.77 286.78 268.75 283.02 276.29
  C 277.66 287.04 300.58 291.22 306.70 292.32
  C 324.76 295.56 338.28 297.72 353.83 302.90
  C 364.08 306.32 373.99 311.42 380.43 319.61
  C 391.35 333.51 387.56 352.55 377.07 365.59
  Q 366.74 378.43 351.98 388.73
  C 334.14 401.17 313.05 412.75 298.70 421.93
  C 289.04 428.11 271.73 440.42 283.67 453.61
  Q 284.75 454.80 287.14 454.38
  C 372.22 439.40 438.26 369.47 451.15 284.46
  Q 452.79 273.66 452.57 267.21
  A 0.60 0.60 0.0 0 0 451.96 266.63
  Z"
/>
<path fill="none" d="
  M 260.50 291.21
  A 0.38 0.37 57.0 0 0 259.81 291.06
  Q 256.56 296.38 251.09 299.79
  A 0.70 0.69 -27.1 0 0 250.81 300.63
  C 257.08 316.56 273.81 321.71 288.24 327.51
  Q 297.12 331.07 302.35 335.52
  Q 306.47 339.03 304.28 344.41
  Q 303.57 346.17 300.06 349.06
  C 292.70 355.14 282.08 359.22 272.15 362.62
  C 249.57 370.35 219.46 377.71 203.45 382.19
  Q 188.54 386.36 171.83 393.09
  C 159.86 397.92 147.39 405.23 138.22 415.08
  A 0.61 0.60 40.2 0 1 137.41 415.14
  C 92.89 380.12 64.01 327.94 59.42 271.23
  Q 59.26 269.26 59.41 267.12
  A 0.55 0.55 0.0 0 1 59.96 266.61
  C 71.55 266.71 81.60 268.44 89.95 258.42
  C 93.75 253.86 95.74 246.55 97.77 242.28
  Q 98.93 239.82 100.10 238.62
  A 1.13 1.13 0.0 0 1 101.89 238.84
  Q 104.92 243.99 106.28 250.49
  Q 109.07 263.89 111.01 272.49
  C 112.74 280.19 116.07 289.05 123.62 291.91
  C 129.16 294.01 134.57 290.55 137.32 285.55
  C 141.50 277.96 142.92 268.60 144.12 259.88
  Q 145.20 252.07 149.60 212.12
  Q 151.03 199.07 154.07 186.78
  A 0.60 0.60 0.0 0 1 155.23 186.77
  Q 158.04 197.35 159.21 208.51
  Q 161.15 226.87 162.01 238.50
  Q 164.60 273.29 167.73 307.50
  Q 169.02 321.55 171.69 332.05
  C 173.39 338.70 176.19 346.85 183.26 348.61
  C 191.53 350.66 196.36 341.37 198.25 334.48
  Q 201.23 323.61 202.62 311.08
  Q 206.64 275.02 207.50 269.01
  Q 209.10 257.93 211.96 249.72
  A 0.80 0.80 0.0 0 1 213.44 249.63
  C 217.86 258.63 218.49 272.44 224.44 284.82
  C 231.53 299.57 247.60 298.07 254.91 284.21
  C 258.83 276.78 260.48 267.25 261.24 258.74
  Q 262.43 245.44 262.11 231.36
  A 0.60 0.59 -3.7 0 1 262.64 230.76
  C 286.58 228.48 306.03 209.92 310.98 186.76
  C 313.05 177.08 312.02 165.77 312.23 155.44
  Q 312.31 151.29 311.29 149.53
  C 309.14 145.78 303.91 145.69 301.28 149.31
  Q 300.17 150.84 300.29 155.04
  Q 300.39 159.11 300.28 176.99
  C 300.20 190.97 291.78 204.56 280.53 212.08
  C 264.51 222.78 243.74 222.05 228.78 209.94
  C 219.09 202.10 212.37 190.53 211.84 178.00
  Q 211.73 175.35 211.81 155.19
  Q 211.83 150.71 210.76 149.18
  C 208.31 145.68 202.90 145.76 200.79 149.61
  Q 199.94 151.15 199.92 155.06
  Q 199.82 170.69 200.12 177.50
  C 201.34 205.09 222.14 227.36 249.38 230.84
  A 0.71 0.70 -86.3 0 1 249.99 231.54
  C 250.08 246.73 249.97 262.23 245.05 276.31
  Q 243.89 279.64 241.67 281.82
  A 3.46 2.70 -54.5 0 1 238.50 282.76
  C 236.21 281.97 233.98 276.48 233.14 273.86
  C 230.64 265.99 228.73 252.09 223.27 242.50
  C 220.20 237.11 213.62 233.75 207.70 237.00
  C 202.43 239.89 199.83 246.10 198.34 251.83
  Q 196.07 260.51 194.79 271.51
  Q 192.35 292.42 189.90 313.15
  Q 188.68 323.46 185.87 333.05
  A 0.48 0.48 0.0 0 1 184.95 333.07
  Q 182.90 327.20 181.87 320.38
  Q 179.84 307.05 178.71 292.75
  Q 174.57 240.30 172.23 215.26
  Q 170.80 199.88 168.89 190.87
  C 167.55 184.52 166.06 178.64 162.05 174.17
  C 159.18 170.97 154.41 169.88 150.68 171.74
  C 146.21 173.97 143.91 178.40 142.41 183.15
  Q 140.23 190.05 138.69 200.20
  Q 136.68 213.44 134.03 240.75
  Q 132.56 255.93 130.11 268.33
  Q 129.07 273.62 127.31 278.30
  A 0.67 0.67 0.0 0 1 126.07 278.33
  C 121.97 268.65 119.93 254.33 118.00 247.28
  C 116.23 240.76 114.41 234.44 110.08 229.68
  C 103.36 222.28 93.58 225.30 88.95 232.98
  C 85.91 238.00 84.36 244.04 81.26 249.53
  Q 78.71 254.05 73.23 254.37
  Q 69.09 254.62 59.45 254.51
  A 0.58 0.58 0.0 0 1 58.88 253.92
  C 59.71 195.16 86.16 139.34 131.26 101.80
  C 175.08 65.33 233.29 49.82 289.60 59.65
  C 372.70 74.16 435.53 139.63 450.24 221.99
  Q 453.04 237.72 453.06 253.71
  A 0.83 0.82 90.0 0 1 452.24 254.54
  Q 444.82 254.57 430.93 254.50
  Q 423.12 254.47 419.19 256.02
  C 409.24 259.98 405.63 269.30 402.00 279.23
  Q 400.88 282.32 398.81 284.40
  A 0.88 0.87 -43.5 0 1 397.53 284.37
  C 394.13 280.52 391.80 271.86 390.78 267.26
  Q 388.17 255.48 383.08 227.15
  Q 380.34 211.93 377.89 203.59
  C 375.69 196.10 371.37 185.41 361.82 185.84
  C 353.34 186.22 348.86 196.50 347.13 203.38
  Q 344.10 215.45 342.89 224.11
  Q 341.44 234.45 339.23 242.72
  C 337.67 248.58 334.11 254.43 327.00 254.45
  Q 323.52 254.47 305.01 254.70
  C 290.65 254.88 272.01 260.94 270.41 277.79
  C 268.65 296.34 292.09 301.87 305.88 304.14
  Q 326.74 307.56 342.01 311.54
  C 355.91 315.17 377.47 323.01 374.98 341.78
  C 373.29 354.56 362.14 365.91 352.28 373.56
  C 336.98 385.44 323.00 393.44 305.35 403.84
  Q 289.46 413.20 280.20 420.93
  Q 276.81 423.76 272.71 429.42
  Q 263.52 442.10 270.73 455.92
  A 0.30 0.30 0.0 0 1 270.49 456.36
  C 226.85 459.70 183.87 447.71 148.02 422.91
  A 0.38 0.37 -51.6 0 1 147.96 422.35
  C 156.46 413.17 169.52 406.47 181.47 401.98
  C 200.63 394.78 217.00 390.67 239.71 384.66
  C 257.28 380.01 274.69 375.14 291.30 367.82
  Q 303.59 362.39 311.08 354.88
  Q 317.72 348.22 317.02 339.11
  C 315.84 323.52 293.35 316.76 281.48 312.06
  C 271.55 308.13 261.89 302.08 260.50 291.21
  Z
  M 256.02 210.61
  C 272.11 210.61 285.20 200.40 290.12 185.19
  C 291.98 179.43 291.72 173.17 291.65 167.03
  A 0.47 0.46 89.4 0 0 291.19 166.57
  L 274.68 166.57
  A 4.18 4.18 0.0 0 1 270.50 162.39
  L 270.50 161.89
  A 4.12 4.12 0.0 0 1 274.62 157.77
  L 291.14 157.77
  A 0.51 0.51 0.0 0 0 291.65 157.26
  L 291.65 147.65
  A 0.50 0.50 0.0 0 0 291.15 147.15
  L 274.67 147.15
  A 4.21 4.20 0.0 0 1 270.46 142.95
  L 270.46 142.42
  A 4.11 4.11 0.0 0 1 274.57 138.31
  L 291.15 138.31
  A 0.52 0.52 0.0 0 0 291.67 137.79
  L 291.67 128.29
  A 0.47 0.47 0.0 0 0 291.20 127.82
  L 274.56 127.82
  A 4.17 4.16 -0.1 0 1 270.39 123.67
  L 270.39 123.39
  A 4.39 4.38 90.0 0 1 274.77 119.00
  L 291.08 119.00
  A 0.57 0.57 0.0 0 0 291.65 118.42
  C 291.40 99.52 274.96 83.95 256.05 83.95
  C 237.14 83.95 220.69 99.51 220.44 118.41
  A 0.57 0.57 0.0 0 0 221.00 118.99
  L 237.31 118.99
  A 4.39 4.38 -90.0 0 1 241.69 123.38
  L 241.69 123.66
  A 4.17 4.16 0.1 0 1 237.52 127.81
  L 220.88 127.81
  A 0.47 0.47 0.0 0 0 220.41 128.28
  L 220.41 137.78
  A 0.52 0.52 0.0 0 0 220.93 138.30
  L 237.51 138.30
  A 4.11 4.11 0.0 0 1 241.61 142.41
  L 241.61 142.94
  A 4.21 4.20 0.0 0 1 237.40 147.14
  L 220.92 147.14
  A 0.50 0.50 0.0 0 0 220.42 147.64
  L 220.42 157.25
  A 0.51 0.51 0.0 0 0 220.93 157.76
  L 237.45 157.76
  A 4.12 4.12 0.0 0 1 241.57 161.88
  L 241.57 162.38
  A 4.18 4.18 0.0 0 1 237.38 166.56
  L 220.87 166.56
  A 0.47 0.46 -89.3 0 0 220.41 167.02
  C 220.34 173.16 220.08 179.42 221.93 185.17
  C 226.85 200.38 239.94 210.60 256.02 210.61
  Z
  M 327.81 321.26
  L 322.71 314.22
  A 0.09 0.03 73.2 0 0 322.69 314.19
  Q 319.20 311.15 316.29 310.86
  Q 311.42 310.38 311.37 314.84
  C 311.30 320.81 317.68 324.80 322.83 326.97
  A 0.61 0.60 -56.4 0 0 323.50 326.83
  L 327.74 322.27
  A 0.80 0.79 -41.3 0 0 327.81 321.26
  Z
  M 329.99 322.66
  L 326.02 328.13
  A 0.67 0.67 0.0 0 0 326.17 329.07
  L 327.95 330.36
  A 4.93 3.85 36.0 0 0 334.20 330.14
  L 334.43 329.82
  A 4.93 3.85 36.0 0 0 332.71 323.81
  L 330.93 322.51
  A 0.67 0.67 0.0 0 0 329.99 322.66
  Z
  M 355.23 351.62
  Q 358.92 344.08 358.91 336.54
  C 358.91 332.43 356.84 327.06 352.54 325.77
  Q 348.33 324.51 345.67 328.88
  Q 341.90 335.08 343.66 341.84
  C 344.43 344.79 344.44 346.15 344.10 349.00
  A 0.72 0.72 0.0 0 0 344.66 349.78
  L 354.56 351.95
  A 0.60 0.60 0.0 0 0 355.23 351.62
  Z
  M 353.47 355.27
  L 343.84 353.19
  A 0.63 0.63 0.0 0 0 343.12 353.58
  C 341.60 357.51 340.15 363.03 344.95 364.79
  C 350.68 366.89 353.01 360.93 354.00 356.10
  A 0.70 0.70 0.0 0 0 353.47 355.27
  Z
  M 305.60 391.78
  Q 311.77 388.24 316.30 384.14
  C 321.24 379.67 326.70 370.83 322.86 364.39
  C 320.25 360.02 315.54 360.19 311.42 362.47
  C 305.49 365.75 303.16 369.33 300.87 375.10
  Q 299.38 378.85 296.19 381.52
  A 0.40 0.39 -41.6 0 0 296.15 382.09
  L 304.94 391.68
  A 0.54 0.54 0.0 0 0 305.60 391.78
  Z
  M 301.28 394.19
  L 293.00 385.16
  A 0.79 0.78 -38.0 0 0 291.99 385.04
  C 287.62 387.93 282.18 392.49 285.79 397.73
  C 290.10 403.99 296.75 399.61 301.23 395.42
  A 0.87 0.87 0.0 0 0 301.28 394.19
  Z
  M 228.23 428.72
  C 231.38 425.80 233.70 424.09 237.14 422.86
  C 240.61 421.61 243.32 420.86 245.81 419.04
  C 251.73 414.71 261.93 403.73 255.21 396.09
  C 248.92 388.95 237.63 392.44 230.87 397.47
  Q 221.22 404.65 214.46 415.91
  A 0.62 0.61 -53.4 0 0 214.57 416.69
  L 227.47 428.72
  A 0.56 0.56 0.0 0 0 228.23 428.72
  Z
  M 223.27 432.82
  L 210.77 421.44
  A 1.03 1.03 0.0 0 0 209.32 421.51
  L 205.04 426.21
  A 11.52 8.97 -47.7 0 0 203.92 440.77
  L 204.68 441.45
  A 11.52 8.97 -47.7 0 0 219.06 438.97
  L 223.34 434.27
  A 1.03 1.03 0.0 0 0 223.27 432.82
  Z"
/>
<path fill="#ffffff" d="
  M 256.05 83.95
  C 274.96 83.95 291.40 99.52 291.65 118.42
  A 0.57 0.57 0.0 0 1 291.08 119.00
  L 274.77 119.00
  A 4.39 4.38 -90.0 0 0 270.39 123.39
  L 270.39 123.67
  A 4.17 4.16 -0.1 0 0 274.56 127.82
  L 291.20 127.82
  A 0.47 0.47 0.0 0 1 291.67 128.29
  L 291.67 137.79
  A 0.52 0.52 0.0 0 1 291.15 138.31
  L 274.57 138.31
  A 4.11 4.11 0.0 0 0 270.46 142.42
  L 270.46 142.95
  A 4.21 4.20 0.0 0 0 274.67 147.15
  L 291.15 147.15
  A 0.50 0.50 0.0 0 1 291.65 147.65
  L 291.65 157.26
  A 0.51 0.51 0.0 0 1 291.14 157.77
  L 274.62 157.77
  A 4.12 4.12 0.0 0 0 270.50 161.89
  L 270.50 162.39
  A 4.18 4.18 0.0 0 0 274.68 166.57
  L 291.19 166.57
  A 0.47 0.46 89.4 0 1 291.65 167.03
  C 291.72 173.17 291.98 179.43 290.12 185.19
  C 285.20 200.40 272.11 210.61 256.02 210.61
  C 239.94 210.60 226.85 200.38 221.93 185.17
  C 220.08 179.42 220.34 173.16 220.41 167.02
  A 0.47 0.46 -89.3 0 1 220.87 166.56
  L 237.38 166.56
  A 4.18 4.18 0.0 0 0 241.57 162.38
  L 241.57 161.88
  A 4.12 4.12 0.0 0 0 237.45 157.76
  L 220.93 157.76
  A 0.51 0.51 0.0 0 1 220.42 157.25
  L 220.42 147.64
  A 0.50 0.50 0.0 0 1 220.92 147.14
  L 237.40 147.14
  A 4.21 4.20 0.0 0 0 241.61 142.94
  L 241.61 142.41
  A 4.11 4.11 0.0 0 0 237.51 138.30
  L 220.93 138.30
  A 0.52 0.52 0.0 0 1 220.41 137.78
  L 220.41 128.28
  A 0.47 0.47 0.0 0 1 220.88 127.81
  L 237.52 127.81
  A 4.17 4.16 0.1 0 0 241.69 123.66
  L 241.69 123.38
  A 4.39 4.38 -90.0 0 0 237.31 118.99
  L 221.00 118.99
  A 0.57 0.57 0.0 0 1 220.44 118.41
  C 220.69 99.51 237.14 83.95 256.05 83.95
  Z"
/>
<path fill="none" d="
  M 452.57 267.21
  Q 452.79 273.66 451.15 284.46
  C 438.26 369.47 372.22 439.40 287.14 454.38
  Q 284.75 454.80 283.67 453.61
  C 271.73 440.42 289.04 428.11 298.70 421.93
  C 313.05 412.75 334.14 401.17 351.98 388.73
  Q 366.74 378.43 377.07 365.59
  C 387.56 352.55 391.35 333.51 380.43 319.61
  C 373.99 311.42 364.08 306.32 353.83 302.90
  C 338.28 297.72 324.76 295.56 306.70 292.32
  C 300.58 291.22 277.66 287.04 283.02 276.29
  C 286.78 268.75 296.29 266.77 304.02 266.75
  Q 324.03 266.68 328.99 266.50
  C 340.33 266.09 347.37 257.63 350.52 247.52
  C 354.43 234.99 355.75 220.01 358.27 209.03
  Q 359.54 203.47 361.87 199.26
  A 0.52 0.52 0.0 0 1 362.72 199.18
  Q 364.04 200.76 365.04 203.55
  Q 367.61 210.72 369.82 222.95
  Q 374.76 250.34 377.85 265.13
  Q 379.87 274.80 383.20 283.82
  C 385.63 290.43 390.29 296.86 397.82 297.03
  C 409.67 297.30 413.61 283.56 417.17 274.69
  C 419.92 267.81 424.32 266.53 431.78 266.63
  Q 441.59 266.77 451.96 266.63
  A 0.60 0.60 0.0 0 1 452.57 267.21
  Z"
/>
<path fill="#ffffff" d="
  M 327.74 322.27
  L 323.50 326.83
  A 0.61 0.60 -56.4 0 1 322.83 326.97
  C 317.68 324.80 311.30 320.81 311.37 314.84
  Q 311.42 310.38 316.29 310.86
  Q 319.20 311.15 322.69 314.19
  A 0.09 0.03 73.2 0 1 322.71 314.22
  L 327.81 321.26
  A 0.80 0.79 -41.3 0 1 327.74 322.27
  Z"
/>
<path fill="#ffffff" d="
  M 329.99 322.66
  A 0.67 0.67 0.0 0 1 330.93 322.51
  L 332.71 323.81
  A 4.93 3.85 36.0 0 1 334.43 329.82
  L 334.20 330.14
  A 4.93 3.85 36.0 0 1 327.95 330.36
  L 326.17 329.07
  A 0.67 0.67 0.0 0 1 326.02 328.13
  L 329.99 322.66
  Z"
/>
<path fill="#ffffff" d="
  M 355.23 351.62
  A 0.60 0.60 0.0 0 1 354.56 351.95
  L 344.66 349.78
  A 0.72 0.72 0.0 0 1 344.10 349.00
  C 344.44 346.15 344.43 344.79 343.66 341.84
  Q 341.90 335.08 345.67 328.88
  Q 348.33 324.51 352.54 325.77
  C 356.84 327.06 358.91 332.43 358.91 336.54
  Q 358.92 344.08 355.23 351.62
  Z"
/>
<path fill="#ffffff" d="
  M 353.47 355.27
  A 0.70 0.70 0.0 0 1 354.00 356.10
  C 353.01 360.93 350.68 366.89 344.95 364.79
  C 340.15 363.03 341.60 357.51 343.12 353.58
  A 0.63 0.63 0.0 0 1 343.84 353.19
  L 353.47 355.27
  Z"
/>
<path fill="#ffffff" d="
  M 305.60 391.78
  A 0.54 0.54 0.0 0 1 304.94 391.68
  L 296.15 382.09
  A 0.40 0.39 -41.6 0 1 296.19 381.52
  Q 299.38 378.85 300.87 375.10
  C 303.16 369.33 305.49 365.75 311.42 362.47
  C 315.54 360.19 320.25 360.02 322.86 364.39
  C 326.70 370.83 321.24 379.67 316.30 384.14
  Q 311.77 388.24 305.60 391.78
  Z"
/>
<path fill="#ffffff" d="
  M 301.23 395.42
  C 296.75 399.61 290.10 403.99 285.79 397.73
  C 282.18 392.49 287.62 387.93 291.99 385.04
  A 0.79 0.78 -38.0 0 1 293.00 385.16
  L 301.28 394.19
  A 0.87 0.87 0.0 0 1 301.23 395.42
  Z"
/>
<path fill="#ffffff" d="
  M 228.23 428.72
  A 0.56 0.56 0.0 0 1 227.47 428.72
  L 214.57 416.69
  A 0.62 0.61 -53.4 0 1 214.46 415.91
  Q 221.22 404.65 230.87 397.47
  C 237.63 392.44 248.92 388.95 255.21 396.09
  C 261.93 403.73 251.73 414.71 245.81 419.04
  C 243.32 420.86 240.61 421.61 237.14 422.86
  C 233.70 424.09 231.38 425.80 228.23 428.72
  Z"
/>
<path fill="#ffffff" d="
  M 223.27 432.82
  A 1.03 1.03 0.0 0 1 223.34 434.27
  L 219.06 438.97
  A 11.52 8.97 -47.7 0 1 204.68 441.45
  L 203.92 440.77
  A 11.52 8.97 -47.7 0 1 205.04 426.21
  L 209.32 421.51
  A 1.03 1.03 0.0 0 1 210.77 421.44
  L 223.27 432.82
  Z"
/>
</svg>
